<svg class="social-icon social-icon-pinterest" xmlns="http://www.w3.org/2000/svg" version="1.1" x="0" y="0" viewBox="0 0 500 500" xml:space="preserve">
    <rect class="social-icon-inner social-icon-inner-pinterest" x="32.5" y="32.5" class="st0" width="435" height="435"/>
    <path class="social-icon-outer social-icon-outer-pinterest" d="M487.5 487.5h-475v-475h475V487.5zM37.5 462.5h425v-425h-425V462.5z"/>
    <path class="social-icon-logo social-icon-logo-pinterest" d="M262 26C138.3 26 38 126.3 38 250c0 91.7 55.2 170.5 134.1 205.2 -0.6-15.6-0.1-34.4 3.9-51.4 4.3-18.2 28.8-122.1 28.8-122.1s-7.2-14.3-7.2-35.4c0-33.2 19.2-58 43.2-58 20.4 0 30.2 15.3 30.2 33.6 0 20.5-13.1 51.1-19.8 79.5 -5.6 23.8 11.9 43.1 35.4 43.1 42.4 0 71-54.5 71-119.1 0-49.1-33.1-85.8-93.2-85.8 -67.9 0-110.3 50.7-110.3 107.3 0 19.5 5.8 33.3 14.8 43.9 4.1 4.9 4.7 6.9 3.2 12.5 -1.1 4.1-3.5 14-4.6 18 -1.5 5.7-6.1 7.7-11.2 5.6 -31.3-12.8-45.9-47-45.9-85.6 0-63.6 53.7-139.9 160.1-139.9 85.5 0 141.8 61.9 141.8 128.3 0 87.9-48.9 153.5-120.9 153.5 -24.2 0-46.9-13.1-54.7-27.9 0 0-13 51.6-15.8 61.6 -4.7 17.3-14 34.5-22.5 48 20.1 5.9 41.4 9.2 63.5 9.2 123.7 0 224-100.3 224-224C486 126.3 385.7 26 262 26z" />
</svg>