<svg class="social-icon social-icon-twitter" xmlns="http://www.w3.org/2000/svg" version="1.1" x="0" y="0" viewBox="0 0 500 500" xml:space="preserve">
    <rect class="social-icon-inner social-icon-inner-twitter" x="32.5" y="32.5" class="st0" width="435" height="435"/>
    <path class="social-icon-outer social-icon-outer-twitter" d="M487.5 487.5h-475v-475h475V487.5zM37.5 462.5h425v-425h-425V462.5z"/>
    <path class="social-icon-logo social-icon-logo-twitter" d="M411.4 153.7c-11.7 5.2-24.1 8.6-37.3 10.3 13.4-8 23.7-20.8 28.6-35.9 -12.5 7.4-26.4 12.9-41.2 15.8 -11.9-12.7-28.8-20.6-47.4-20.6 -35.9 0-64.9 29.1-64.9 65 0 5.1 0.5 10.1 1.7 14.8 -54-2.7-101.8-28.6-133.8-67.9 -5.6 9.6-8.8 20.8-8.8 32.6 0 22.5 11.5 42.4 29 54.1 -10.7-0.3-20.8-3.2-29.5-8.1 0 0.3 0 0.5 0 0.8 0 31.5 22.4 57.7 52.1 63.7 -5.4 1.5-11.2 2.3-17.1 2.3 -4.2 0-8.2-0.4-12.2-1.2 8.2 25.8 32.2 44.6 60.7 45.1 -22.2 17.4-50.2 27.8-80.6 27.8 -5.2 0-10.4-0.3-15.5-0.9 28.6 18.6 62.7 29.4 99.3 29.4 119.5 0 184.8-99 184.8-184.9 0-2.8-0.1-5.6-0.2-8.4C391.7 178.2 402.7 166.8 411.4 153.7z"/>
</svg>